<svg xmlns="http://www.w3.org/2000/svg" enable-background="new 0 0 16 16" version="1.1" viewBox="0 0 16 16" xml:space="preserve"><style type="text/css">.st0{fill:#fff}</style><g><path d="m67 729.5v3c0 0.3-0.2 0.5-0.5 0.5h-3c-0.3 0-0.5 0.2-0.5 0.5v1c0 0.3 0.2 0.5 0.5 0.5h3c0.3 0 0.5 0.2 0.5 0.5v3c0 0.3 0.2 0.5 0.5 0.5h1c0.3 0 0.5-0.2 0.5-0.5v-3c0-0.3 0.2-0.5 0.5-0.5h3c0.3 0 0.5-0.2 0.5-0.5v-1c0-0.3-0.2-0.5-0.5-0.5h-3c-0.3 0-0.5-0.2-0.5-0.5v-3c0-0.3-0.2-0.5-0.5-0.5h-1c-0.3 0-0.5 0.2-0.5 0.5z" class="st0" transform="translate(-60 -726)"/></g></svg>