<svg xmlns="http://www.w3.org/2000/svg" xmlns:svg="http://www.w3.org/2000/svg" id="svg7384" width="16" height="16" version="1.1"><metadata id="metadata90"/><title id="title9167">Gnome Symbolic Icon Theme</title><g id="layer13" transform="translate(-442,-176)"><g id="g14154" transform="translate(234.0002,-820)"><path id="rect3845" d="m 208.53105,997 c -0.28913,0 -0.53125,0.24212 -0.53125,0.53125 l 0,13.93755 c 0,0.2985 0.23264,0.5312 0.53125,0.5312 l 14.9375,0 c 0.2986,0 0.53125,-0.2326 0.53125,-0.5312 l 0,-8.9376 c 0,-0.2891 -0.24212,-0.5312 -0.53125,-0.5312 l -12.46875,0 0,7.5 c 0,0.277 -0.223,0.5 -0.5,0.5 -0.277,0 -0.5,-0.223 -0.5,-0.5 l 0,-8 c 0,-0.277 0.223,-0.5 0.5,-0.5 l 2.96875,0 8.53125,0 0,-1.4062 c 0,-0.3272 -0.26666,-0.5938 -0.59375,-0.5938 l -7.40625,0 0,-1.46875 C 213.9998,997.2421 213.75768,997 213.46855,997 z" style="fill:#fff;fill-opacity:1;stroke:none;display:inline"/></g></g></svg>