<svg xmlns="http://www.w3.org/2000/svg" xmlns:svg="http://www.w3.org/2000/svg" width="16" height="16" version="1.1"><g><path d="m84.406 657a0.5 0.5 0 0 0-0.312 0.219l-1 1.5a0.5 0.5 0 1 0 0.813 0.563l1-1.5A0.5 0.5 0 0 0 84.406 657zm7 0a0.5 0.5 0 0 0-0.312 0.781l1 1.5a0.5 0.5 0 1 0 0.813-0.562l-1-1.5A0.5 0.5 0 0 0 91.406 657z" transform="translate(-80,-648)" style="-inkscape-font-specification:Sans;baseline-shift:baseline;block-progression:tb;direction:ltr;fill:#fff;font-family:Sans;font-size:medium;letter-spacing:normal;line-height:normal;text-align:start;text-anchor:start;text-decoration:none;text-indent:0;text-transform:none;word-spacing:normal;writing-mode:lr-tb"/><g><path d="m167 539 0 5.563-1.281-1.281C165.531 543.093 165.265 543 165 543l-1 0 0 1c0 0.265 0.093 0.531 0.281 0.719l3 3 0.281 0.281 0.875 0 0.281-0.281 3-3C171.907 544.531 172 544.265 172 544l0-1-1 0c-0.265 0-0.531 0.093-0.719 0.281L169 544.563 169 539z" transform="translate(-80,-648) translate(-80,110)" style="-inkscape-font-specification:Bitstream Vera Sans;block-progression:tb;direction:ltr;fill:#fff;font-family:Bitstream Vera Sans;font-size:medium;letter-spacing:normal;line-height:normal;text-align:start;text-anchor:start;text-decoration:none;text-indent:0;text-transform:none;word-spacing:normal;writing-mode:lr-tb"/><path fill="#fff" d="m163 549 0 4 10 0 0-4zm3.344 1.438c0.021-0.001 0.042-0.001 0.063 0 0.291-0.056 0.599 0.204 0.594 0.5l0 0.063 2 0 0-0.062c-0.004-0.264 0.236-0.507 0.5-0.507 0.264 0 0.504 0.243 0.5 0.507L170 551c0 0.545-0.455 1-1 1l-2 0c-0.545 0-1-0.455-1-1l0-0.062c-0.011-0.217 0.137-0.432 0.344-0.5z" transform="translate(-80,-648) translate(-80,110)"/></g></g></svg>