<svg xmlns="http://www.w3.org/2000/svg" xmlns:svg="http://www.w3.org/2000/svg" id="svg5" width="17" height="17" version="1.1" viewBox="0 0 17 17"><metadata id="metadata11"/><g id="surface2" transform="translate(0,-1)"><path style="fill:#f0f0f0;fill-opacity:1;fill-rule:nonzero;stroke:none" id="path2" d="m 4.246094,15.433594 c 0,1.101562 -0.898438,2 -2,2 -1.105469,0 -2,-0.898438 -2,-2 0,-1.105469 0.894531,-2 2,-2 1.101562,0 2,0.894531 2,2 m 5,2 c 0,-4.984375 -4.019532,-9 -9,-9 v -2 c 6.0625,0 11,4.933594 11,11 z m 5.5,0 c 0,-8.019532 -6.480469,-14.5 -14.5,-14.5 v -2 c 9.097656,0 16.5,7.398437 16.5,16.5 z m 0,0"/></g></svg>