<svg xmlns="http://www.w3.org/2000/svg" xmlns:svg="http://www.w3.org/2000/svg" id="svg5" width="16" height="17" version="1.1" viewBox="0 0 16 17"><metadata id="metadata11"/><g id="surface2"><path style="fill:#515151;fill-opacity:1;fill-rule:nonzero;stroke:none" id="path2" d="m 6.667969,1 v 2.839844 c -0.488281,0.125 -0.949219,0.320312 -1.375,0.570312 L 3.285156,2.402344 1.402344,4.285156 3.410156,6.292969 C 3.160156,6.71875 2.964844,7.179688 2.839844,7.664062 H 0 v 2.667969 h 2.839844 c 0.125,0.488281 0.316406,0.949219 0.570312,1.375 l -2.007812,2.007813 1.882812,1.882812 2.007813,-2.007812 c 0.425781,0.25 0.886719,0.441406 1.375,0.566406 V 17 h 2.664062 v -2.84375 c 0.488281,-0.125 0.949219,-0.316406 1.371094,-0.566406 l 2.011719,2.007812 1.886718,-1.882812 -2.011718,-2.007813 c 0.25,-0.425781 0.441406,-0.886719 0.570312,-1.375 H 16 V 7.664062 H 13.160156 C 13.03125,7.179688 12.839844,6.71875 12.589844,6.292969 L 14.601562,4.285156 12.714844,2.398438 10.703125,4.410156 C 10.28125,4.15625 9.820312,3.964844 9.332031,3.839844 V 1 Z M 8,6.332031 c 1.472656,0 2.664062,1.195313 2.664062,2.667969 0,1.472656 -1.191406,2.664062 -2.664062,2.664062 C 6.527344,11.664062 5.332031,10.472656 5.332031,9 5.332031,7.527344 6.527344,6.332031 8,6.332031 Z m 0,0"/></g></svg>