<svg xmlns="http://www.w3.org/2000/svg" xmlns:svg="http://www.w3.org/2000/svg" id="svg5" width="17" height="17" version="1.1" viewBox="0 0 17 17"><metadata id="metadata11"/><g id="surface3"><path style="fill:#515151;fill-opacity:1;fill-rule:nonzero;stroke:none" id="path2" d="M 15,0 V 3.042969 C 12.386719,-0.0820312 7.859375,-0.945312 4.25,1.132812 0.1875,3.480469 -1.207031,8.679688 1.140625,12.746094 3.488281,16.8125 8.683594,18.207031 12.75,15.859375 c 0.140625,-0.08594 0.28125,-0.179687 0.417969,-0.273437 L 12.171875,13.859375 C 12.035156,13.953125 11.894531,14.042969 11.75,14.125 8.640625,15.921875 4.667969,14.855469 2.871094,11.746094 1.078125,8.636719 2.140625,4.660156 5.25,2.863281 8.191406,1.167969 11.941406,2.019531 13.859375,4.820312 L 14.035156,5 H 10 v 2 h 7 V 0 Z m 0,0"/></g></svg>